<svg width="27" height="26" viewBox="0 0 27 26" fill="none" xmlns="http://www.w3.org/2000/svg">
<g clip-path="url(#clip0_1102_1198)">
<path d="M26.0695 0H25.3058C24.0593 0 22.9502 0.599219 22.2528 1.52344H22.2507C21.0027 1.52344 19.8928 2.12367 19.1957 3.04941V3.04688C17.0898 3.04688 15.3769 4.75556 15.3769 6.85547V10.5192L13.0348 12.8229L10.6926 10.5192V6.85547C10.6926 4.75556 8.97973 3.04688 6.8738 3.04688V3.04941C6.17669 2.12367 5.06685 1.52344 3.81878 1.52344H3.81674C3.11933 0.599219 2.0102 0 0.763755 0H0V11.9651L5.41151 18.3828H4.58253V26H21.487V18.3828H20.658L26.0695 11.9651V0ZM9.16506 6.85547V9.16398C8.69907 8.88354 8.17819 8.70605 7.63755 8.64348V5.33203C7.63755 5.11062 7.61729 4.89328 7.58104 4.68203C8.49922 4.98012 9.16506 5.84137 9.16506 6.85547ZM4.58253 3.17738C5.47154 3.49182 6.11004 4.3388 6.11004 5.33203V8.77089C5.74642 8.87711 5.40078 9.03698 5.08457 9.24518L4.58253 8.74504V3.17738ZM12.271 24.4766H6.11004V19.9062H12.271V24.4766ZM12.271 18.3828H7.40741L1.52751 11.4101V1.654C2.41652 1.96828 3.05502 2.81531 3.05502 3.80859V9.37625L7.86108 14.1695L8.94154 13.0925L6.20215 10.3604C6.50664 10.2145 6.84218 10.138 7.19004 10.138C7.80207 10.138 8.37743 10.3756 8.81022 10.8073L12.271 14.2112V18.3828ZM19.9595 5.33203C19.9595 4.3388 20.598 3.49182 21.487 3.17738V8.74504L20.9849 9.24518C20.6687 9.03698 20.3231 8.87711 19.9595 8.77089V5.33203ZM16.9045 6.85547C16.9045 5.84142 17.5703 4.98012 18.4885 4.68203C18.4513 4.89672 18.4324 5.11416 18.432 5.33203V8.64348C17.8913 8.70605 17.3704 8.88354 16.9045 9.16398V6.85547ZM19.9595 24.4766H13.7985V19.9062H19.9595V24.4766ZM24.542 11.4101L18.6621 18.3828H13.7985V14.2112L17.2593 10.8073C17.6921 10.3756 18.2674 10.138 18.8795 10.138C19.2273 10.138 19.5629 10.2145 19.8674 10.3604L17.128 13.0924L18.2084 14.1695L23.0145 9.3763V3.80859C23.0145 2.81536 23.653 1.96838 24.542 1.65395V11.4101Z" fill="black"/>
<path d="M16.9045 21.4297H18.432V22.9531H16.9045V21.4297Z" fill="black"/>
<path d="M7.63755 21.4297H9.16506V22.9531H7.63755V21.4297Z" fill="black"/>
</g>
<defs>
<clipPath id="clip0_1102_1198">
<rect width="26.0695" height="26" fill="white"/>
</clipPath>
</defs>
</svg>
