<svg width="20" height="20" viewBox="0 0 20 20" fill="none" xmlns="http://www.w3.org/2000/svg">
<g clip-path="url(#clip0_1102_1182)">
<path d="M18.3437 2.72563H13.4894C12.6779 2.72508 11.8905 3.00093 11.2568 3.50773C10.6231 4.01453 10.1809 4.72205 10.0031 5.51376C9.82487 4.72227 9.38257 4.015 8.74897 3.50827C8.11536 3.00155 7.32817 2.72554 6.51686 2.72563H1.66623C1.2242 2.7258 0.800322 2.90147 0.487758 3.21403C0.175195 3.5266 -0.000475221 3.95048 -0.000640869 4.39251V12.9275C-0.000475221 13.3695 0.175195 13.7934 0.487758 14.106C0.800322 14.4185 1.2242 14.5942 1.66623 14.5944H4.78061C8.32936 14.5944 9.38811 15.4413 9.89498 17.1988C9.91936 17.2963 10.0756 17.2963 10.1031 17.1988C10.6137 15.4419 11.6725 14.5944 15.2175 14.5944H18.3319C18.7739 14.5942 19.1978 14.4185 19.5103 14.106C19.8229 13.7934 19.9986 13.3695 19.9987 12.9275V4.39626C19.9987 3.95572 19.8247 3.53302 19.5145 3.22022C19.2043 2.90743 18.783 2.72988 18.3425 2.72626L18.3437 2.72563ZM8.40248 11.9406C8.40265 11.9566 8.39963 11.9724 8.3936 11.9872C8.38756 12.002 8.37864 12.0154 8.36734 12.0267C8.35605 12.038 8.34262 12.047 8.32783 12.053C8.31305 12.059 8.2972 12.062 8.28123 12.0619H2.71498C2.69904 12.062 2.68323 12.0589 2.66849 12.0528C2.65374 12.0468 2.64034 12.0378 2.62906 12.0266C2.61779 12.0153 2.60886 12.0019 2.60279 11.9871C2.59673 11.9724 2.59365 11.9566 2.59373 11.9406V11.1456C2.59373 11.08 2.64561 11.0244 2.71498 11.0244H8.28436C8.34998 11.0244 8.40561 11.0763 8.40561 11.1456V11.9406H8.40248ZM8.40248 9.82626C8.40257 9.8422 8.39949 9.85801 8.39342 9.87276C8.38736 9.8875 8.37843 9.9009 8.36716 9.91218C8.35588 9.92345 8.34248 9.93238 8.32773 9.93845C8.31298 9.94451 8.29718 9.94759 8.28123 9.94751H2.71498C2.69904 9.94759 2.68323 9.94451 2.66849 9.93845C2.65374 9.93238 2.64034 9.92345 2.62906 9.91218C2.61779 9.9009 2.60886 9.8875 2.60279 9.87276C2.59673 9.85801 2.59365 9.8422 2.59373 9.82626V9.03126C2.59373 8.96501 2.64561 8.91001 2.71498 8.91001H8.28436C8.34998 8.91001 8.40561 8.96188 8.40561 9.03126V9.82626H8.40248ZM8.40248 7.71188C8.40257 7.72783 8.39949 7.74363 8.39342 7.75838C8.38736 7.77313 8.37843 7.78653 8.36716 7.7978C8.35588 7.80908 8.34248 7.81801 8.32773 7.82407C8.31298 7.83014 8.29718 7.83322 8.28123 7.83313H2.71498C2.69904 7.83322 2.68323 7.83014 2.66849 7.82407C2.65374 7.81801 2.64034 7.80908 2.62906 7.7978C2.61779 7.78653 2.60886 7.77313 2.60279 7.75838C2.59673 7.74363 2.59365 7.72783 2.59373 7.71188V6.91688C2.59373 6.85126 2.64561 6.79563 2.71498 6.79563H8.28436C8.34998 6.79563 8.40561 6.84751 8.40561 6.91688V7.71188H8.40248ZM17.4062 11.9375C17.4063 11.9535 17.4032 11.9693 17.3972 11.984C17.3911 11.9988 17.3822 12.0122 17.3709 12.0234C17.3596 12.0347 17.3462 12.0436 17.3315 12.0497C17.3167 12.0558 17.3009 12.0588 17.285 12.0588H11.7187C11.7028 12.0588 11.687 12.0558 11.6722 12.0497C11.6575 12.0436 11.6441 12.0347 11.6328 12.0234C11.6215 12.0122 11.6126 11.9988 11.6065 11.984C11.6005 11.9693 11.5974 11.9535 11.5975 11.9375V11.1425C11.5975 11.0769 11.6494 11.0213 11.7187 11.0213H17.2881C17.3544 11.0213 17.4094 11.0731 17.4094 11.1425V11.9375H17.4062ZM17.4062 9.82313C17.4064 9.8391 17.4034 9.85494 17.3973 9.86973C17.3913 9.88452 17.3824 9.89795 17.3711 9.90924C17.3598 9.92053 17.3464 9.92946 17.3316 9.93549C17.3168 9.94153 17.301 9.94455 17.285 9.94438H11.7187C11.7028 9.94447 11.687 9.94139 11.6722 9.93532C11.6575 9.92926 11.6441 9.92033 11.6328 9.90905C11.6215 9.89778 11.6126 9.88438 11.6065 9.86963C11.6005 9.85488 11.5974 9.83908 11.5975 9.82313V9.02813C11.5975 8.96251 11.6494 8.90688 11.7187 8.90688H17.2881C17.3544 8.90688 17.4094 8.95876 17.4094 9.02813V9.82313H17.4062ZM17.4062 7.70813C17.4063 7.72408 17.4032 7.73988 17.3972 7.75463C17.3911 7.76938 17.3822 7.78278 17.3709 7.79405C17.3596 7.80533 17.3462 7.81426 17.3315 7.82032C17.3167 7.82639 17.3009 7.82947 17.285 7.82938H11.7187C11.7028 7.82947 11.687 7.82639 11.6722 7.82032C11.6575 7.81426 11.6441 7.80533 11.6328 7.79405C11.6215 7.78278 11.6126 7.76938 11.6065 7.75463C11.6005 7.73988 11.5974 7.72408 11.5975 7.70813V6.91626C11.5975 6.85063 11.6494 6.79501 11.7187 6.79501H17.2881C17.3544 6.79501 17.4094 6.84688 17.4094 6.91626V7.70813H17.4062Z" fill="white"/>
</g>
<defs>
<clipPath id="clip0_1102_1182">
<rect width="20" height="20" fill="white"/>
</clipPath>
</defs>
</svg>
