<svg width="20" height="19" viewBox="0 0 20 19" fill="none" xmlns="http://www.w3.org/2000/svg">
<g clip-path="url(#clip0_1102_1014)">
<path d="M15.0258 13.1551L18.595 16.5451L17.4158 17.6653L13.8475 14.2746C12.5198 15.2857 10.8683 15.8356 9.16666 15.8333C5.02666 15.8333 1.66666 12.6413 1.66666 8.70834C1.66666 4.77534 5.02666 1.58334 9.16666 1.58334C13.3067 1.58334 16.6667 4.77534 16.6667 8.70834C16.6691 10.3249 16.0902 11.8938 15.0258 13.1551ZM13.3542 12.5677C14.4118 11.5345 15.0024 10.1495 15 8.70834C15 5.64618 12.3892 3.16668 9.16666 3.16668C5.94332 3.16668 3.33332 5.64618 3.33332 8.70834C3.33332 11.7697 5.94332 14.25 9.16666 14.25C10.6837 14.2523 12.1416 13.6912 13.2292 12.6865L13.3542 12.5677Z" fill="#8789A3"/>
</g>
<defs>
<clipPath id="clip0_1102_1014">
<rect width="20" height="19" fill="white"/>
</clipPath>
</defs>
</svg>
